<?xml version="1.0" standalone="no"?>
<!DOCTYPE svg PUBLIC "-//W3C//DTD SVG 20010904//EN"
 "http://www.w3.org/TR/2001/REC-SVG-20010904/DTD/svg10.dtd">
<svg version="1.0" xmlns="http://www.w3.org/2000/svg"
 width="225.000000pt" height="225.000000pt" viewBox="0 0 225.000000 225.000000"
 preserveAspectRatio="xMidYMid meet">

<g transform="translate(0.000000,225.000000) scale(0.100000,-0.100000)"
fill="#000000" stroke="none">
<path d="M0 1125 l0 -1125 1125 0 1125 0 0 1125 0 1125 -1125 0 -1125 0 0
-1125z m1230 -396 c0 -5 5 -7 11 -4 35 22 118 -43 115 -90 -2 -21 -7 -30 -19
-29 -9 1 -15 -3 -14 -10 1 -6 -6 -10 -15 -10 -10 1 -15 -2 -12 -7 3 -5 -2 -12
-11 -15 -16 -7 -68 33 -60 46 6 10 -58 -1 -72 -12 -19 -15 -16 -46 6 -65 11
-9 18 -20 15 -25 -3 -5 -2 -7 3 -6 18 5 74 -12 68 -22 -3 -5 0 -7 9 -4 8 3 23
-3 33 -13 10 -10 25 -18 33 -18 8 0 14 -7 12 -15 -2 -8 0 -12 4 -8 9 10 35
-12 28 -23 -3 -5 0 -8 8 -7 7 2 12 -5 12 -14 -1 -10 3 -15 9 -11 6 4 8 -2 5
-15 -4 -12 -2 -20 3 -16 5 3 9 -20 9 -51 0 -31 -4 -54 -9 -51 -5 4 -7 -3 -4
-13 7 -26 -73 -104 -99 -98 -11 3 -15 1 -11 -5 4 -8 -4 -9 -26 -5 -20 4 -30 3
-26 -3 4 -6 -12 -10 -40 -10 -28 0 -44 4 -40 10 4 6 -6 7 -26 3 -23 -4 -30 -3
-25 5 5 8 2 10 -9 6 -19 -8 -60 18 -102 64 -35 38 -44 68 -17 58 8 -3 13 -2
10 2 -7 11 52 45 64 37 6 -3 10 -1 10 4 0 6 7 11 16 11 10 0 14 -6 10 -15 -3
-8 -2 -14 2 -13 4 2 20 -6 35 -16 34 -23 117 -38 114 -22 -1 6 6 10 15 10 10
-1 16 2 13 6 -3 5 -1 20 5 35 5 14 6 24 1 21 -4 -3 -16 3 -26 14 -10 11 -33
24 -51 30 -20 7 -31 16 -28 22 4 6 2 8 -4 4 -14 -8 -65 11 -58 23 3 5 -2 8
-12 7 -9 0 -16 4 -15 11 2 7 -3 10 -11 7 -16 -6 -50 42 -40 58 5 7 3 8 -6 3
-10 -6 -12 -3 -8 13 4 12 2 20 -3 16 -5 -3 -9 20 -9 51 0 40 3 54 12 49 6 -4
8 -3 5 4 -10 15 3 43 16 35 6 -3 7 -1 3 6 -10 16 13 43 31 37 8 -3 11 -1 8 4
-8 13 43 33 67 27 10 -3 16 -1 12 4 -3 5 13 9 35 9 23 0 41 -5 41 -11z m-322
-247 c1 -147 -1 -241 -7 -238 -5 3 -7 -3 -4 -14 7 -26 -35 -93 -54 -86 -8 3
-11 1 -8 -4 8 -13 -43 -33 -67 -27 -10 3 -16 1 -12 -4 3 -5 -13 -9 -35 -9 -23
0 -41 5 -41 11 0 5 -5 7 -11 4 -16 -11 -61 4 -53 17 4 7 3 8 -4 4 -16 -10 -64
24 -58 40 3 8 0 13 -7 11 -7 -1 -12 10 -12 28 0 23 4 30 18 29 10 -1 16 1 13
4 -10 10 28 29 54 28 24 -1 74 -39 64 -48 -2 -3 10 -3 26 0 17 2 36 13 44 23
7 10 15 17 17 15 2 -3 3 95 1 217 -1 121 0 227 2 234 4 10 22 13 68 11 l63 -3
3 -243z m919 186 c14 -24 38 -64 51 -90 14 -27 30 -48 36 -47 6 0 31 41 55 90
l45 89 53 0 c29 0 53 -2 53 -5 0 -3 -34 -62 -75 -131 -41 -69 -75 -129 -75
-134 0 -6 98 -171 183 -307 6 -10 -6 -13 -52 -13 l-59 0 -64 110 c-62 108 -88
131 -102 93 -4 -10 -30 -60 -59 -110 l-52 -93 -52 0 c-29 0 -53 2 -53 4 0 3
41 72 90 154 50 83 90 155 90 162 0 7 -34 68 -75 137 -41 68 -75 126 -75 129
0 2 25 4 55 4 54 0 55 -1 82 -42z"/>
</g>
</svg>
