<?xml version="1.0" standalone="no"?>
<!DOCTYPE svg PUBLIC "-//W3C//DTD SVG 20010904//EN"
 "http://www.w3.org/TR/2001/REC-SVG-20010904/DTD/svg10.dtd">
<svg version="1.0" xmlns="http://www.w3.org/2000/svg"
 width="256.000000pt" height="256.000000pt" viewBox="0 0 256.000000 256.000000"
 preserveAspectRatio="xMidYMid meet">

<g transform="translate(0.000000,256.000000) scale(0.100000,-0.100000)"
fill="#000000" stroke="none">
<path d="M0 1280 l0 -1280 1280 0 1280 0 0 1280 0 1280 -1280 0 -1280 0 0
-1280z m953 905 c78 -32 187 -100 266 -168 30 -26 58 -47 61 -47 3 0 31 21 61
47 78 67 187 136 266 168 91 38 216 42 278 8 78 -42 130 -117 155 -223 18 -74
15 -237 -5 -344 -9 -49 -15 -89 -13 -90 2 -1 43 -17 92 -34 252 -89 406 -238
406 -392 0 -153 -155 -303 -406 -392 -49 -17 -90 -33 -92 -34 -2 -1 4 -39 13
-85 16 -85 23 -290 10 -328 -6 -21 -87 -81 -152 -115 l-32 -16 29 47 c30 50
50 134 50 212 0 46 -27 241 -34 248 -2 2 -50 -5 -107 -15 -57 -11 -131 -23
-164 -27 -54 -6 -62 -10 -87 -43 -14 -20 -60 -77 -102 -127 -41 -49 -76 -93
-76 -97 0 -5 37 -37 82 -73 110 -87 209 -135 295 -144 l68 -6 -90 -33 c-49
-19 -101 -36 -115 -38 -32 -6 -147 61 -250 145 -41 34 -77 61 -80 61 -3 0 -39
-27 -80 -61 -41 -34 -108 -81 -150 -105 -85 -50 -83 -50 -220 -1 l-85 32 68 6
c86 9 185 57 295 144 45 36 82 68 82 73 0 4 -35 48 -76 97 -42 50 -88 106
-102 126 -25 35 -31 37 -112 48 -47 6 -120 19 -163 27 -43 9 -81 14 -83 12 -7
-8 -34 -202 -34 -249 0 -78 20 -162 50 -212 l29 -47 -32 16 c-65 34 -146 94
-152 115 -13 40 -7 235 10 323 9 49 15 89 13 90 -2 1 -43 17 -92 34 -250 89
-406 239 -406 391 0 159 154 306 415 397 44 15 81 28 83 30 2 1 -4 41 -13 90
-20 107 -23 270 -5 344 30 127 96 207 200 241 46 16 161 2 233 -26z"/>
<path d="M713 2081 c-55 -35 -93 -142 -93 -260 0 -46 27 -241 34 -248 2 -2 50
5 107 15 57 11 131 23 164 27 54 6 63 10 83 39 12 18 58 75 102 127 44 52 80
97 80 101 0 17 -168 140 -238 174 -95 47 -189 57 -239 25z"/>
<path d="M1662 2080 c-29 -10 -76 -33 -105 -51 -60 -36 -187 -137 -187 -147 0
-4 35 -47 76 -97 42 -49 88 -107 102 -127 25 -33 33 -37 87 -43 33 -4 107 -16
164 -27 57 -10 105 -17 107 -15 7 7 34 202 34 248 0 65 -19 157 -41 202 -39
76 -127 97 -237 57z"/>
<path d="M1244 1758 c-17 -18 -47 -53 -66 -78 l-36 -45 138 0 138 0 -36 45
c-45 58 -94 110 -102 110 -3 0 -20 -15 -36 -32z"/>
<path d="M1097 1513 l-48 -4 -54 -83 c-30 -46 -82 -135 -115 -199 l-62 -117
62 -117 c33 -64 85 -153 114 -198 l54 -82 68 -6 c88 -9 240 -9 328 0 l68 6 54
82 c29 45 81 134 114 198 l62 117 -62 117 c-33 64 -85 153 -114 198 l-54 82
-68 6 c-70 7 -259 7 -347 0z m271 -189 c153 -63 191 -267 71 -381 -146 -138
-388 -36 -389 165 0 130 99 231 228 232 29 0 69 -7 90 -16z"/>
<path d="M845 1485 c-5 -1 -43 -9 -82 -16 -46 -8 -73 -17 -73 -25 0 -23 62
-184 70 -184 5 0 11 8 14 18 4 10 31 60 61 111 30 51 55 95 55 97 0 5 -30 4
-45 -1z"/>
<path d="M1670 1486 c0 -2 25 -46 55 -97 30 -51 57 -101 61 -111 3 -10 9 -18
14 -18 8 0 70 161 70 184 0 8 -32 19 -87 29 -90 17 -113 20 -113 13z"/>
<path d="M501 1399 c-145 -51 -289 -148 -326 -220 -19 -36 -19 -102 0 -138 23
-46 117 -124 197 -163 92 -46 189 -81 199 -71 3 5 17 40 29 78 13 39 38 105
56 148 l33 77 -20 48 c-12 26 -38 94 -59 152 -21 57 -41 105 -46 106 -5 1 -33
-6 -63 -17z"/>
<path d="M1985 1408 c-36 -102 -77 -213 -94 -250 l-20 -48 33 -77 c18 -43 43
-109 56 -148 12 -38 26 -73 29 -78 10 -10 107 25 199 71 80 39 174 117 197
163 18 33 19 102 4 132 -36 70 -158 158 -289 210 -97 37 -109 40 -115 25z"/>
<path d="M721 874 c-17 -47 -31 -91 -31 -98 0 -8 33 -19 96 -30 53 -9 98 -15
100 -13 3 2 -20 46 -51 97 -30 52 -57 102 -61 112 -10 33 -22 19 -53 -68z"/>
<path d="M1786 942 c-4 -10 -31 -60 -61 -112 -31 -51 -54 -95 -51 -97 2 -2 47
4 100 13 63 11 96 22 96 30 0 23 -62 184 -70 184 -5 0 -11 -8 -14 -18z"/>
<path d="M1187 529 c24 -31 55 -67 68 -79 l25 -23 25 23 c13 12 44 48 68 79
l45 56 -138 0 -138 0 45 -56z"/>
</g>
</svg>
